<svg width="180" height="55" viewBox="0 0 180 55" fill="none" xmlns="http://www.w3.org/2000/svg">
<g clip-path="url(#clip0_2947_10195)">
<path d="M172.763 28.265H153.919V40.8264H172.763V28.265Z" fill="#DA1A32"/>
<path d="M152.349 14.1312H133.506V26.6926H152.349V14.1312Z" fill="#DA1A32"/>
<path d="M172.763 14.1312H153.919V26.6926H172.763V14.1312Z" fill="#DA1A32"/>
<path d="M152.349 28.265H133.506V40.8264H152.349V28.265Z" fill="#DA1A32"/>
<path d="M131.936 28.265H113.093V40.8264H131.936V28.265Z" fill="#DA1A32"/>
<path d="M131.936 14.1312H113.093V26.6926H131.936V14.1312Z" fill="#DA1A32"/>
<path d="M131.936 0H113.093V12.5614H131.936V0Z" fill="#DA1A32"/>
<path d="M152.349 0H133.506V12.5614H152.349V0Z" fill="#DA1A32"/>
<path d="M172.763 0H153.919V12.5614H172.763V0Z" fill="#DA1A32"/>
<path d="M22.5217 15.8743H13.3869V7.93311H9.35944V33.2913H13.3869V23.5908H22.5217V35.0506L16.3398 40.951H6.69343L0 35.0506V6.17381L6.12505 0.276123H16.3371L22.5189 6.17381V15.8743H22.5217Z" fill="white"/>
<path d="M35.5648 40.9482H26.2026V33.118H35.5648V40.9482Z" fill="white"/>
<path d="M62.6795 40.9483H53.3201V24.438H49.4063V40.9483H40.0469V0.276123H49.4063V16.781H53.3201V0.276123H62.6795V40.9483Z" fill="white"/>
<path d="M76.4047 40.9482H67.0453V33.118H76.4047V40.9482Z" fill="white"/>
<path d="M94.5796 40.9483H81.0087V0.276123H94.5796V40.9483Z" fill="white"/>
<path d="M108.732 40.9482H99.373V33.118H108.732V40.9482Z" fill="white"/>
<path d="M175.699 1.84589C175.818 1.57523 175.981 1.34247 176.184 1.14218C176.389 0.944594 176.628 0.787611 176.898 0.673934C177.172 0.560257 177.459 0.503418 177.764 0.503418C178.07 0.503418 178.357 0.560257 178.628 0.673934C178.898 0.787611 179.134 0.944594 179.337 1.14218C179.54 1.33976 179.7 1.57523 179.819 1.84589C179.938 2.11655 179.997 2.40887 179.997 2.72283C179.997 3.0368 179.938 3.33994 179.819 3.61331C179.7 3.88667 179.54 4.12215 179.337 4.32244C179.134 4.52273 178.898 4.67971 178.628 4.79068C178.357 4.90165 178.07 4.95849 177.764 4.95849C177.459 4.95849 177.172 4.90436 176.898 4.79068C176.625 4.67971 176.387 4.52273 176.184 4.32244C175.981 4.12215 175.818 3.88667 175.699 3.61331C175.58 3.34265 175.521 3.04492 175.521 2.72283C175.521 2.40075 175.58 2.11655 175.699 1.84589ZM176.065 3.48068C176.159 3.71345 176.287 3.91374 176.452 4.08426C176.617 4.25477 176.812 4.3901 177.036 4.48754C177.261 4.58498 177.505 4.6337 177.764 4.6337C178.024 4.6337 178.262 4.58498 178.487 4.48754C178.709 4.3901 178.904 4.25748 179.066 4.08426C179.231 3.91374 179.361 3.71074 179.453 3.48068C179.548 3.24791 179.594 2.9962 179.594 2.72013C179.594 2.44405 179.548 2.20587 179.453 1.97581C179.359 1.74575 179.231 1.54546 179.066 1.37765C178.901 1.20984 178.709 1.07722 178.487 0.97978C178.265 0.882343 178.024 0.833624 177.764 0.833624C177.505 0.833624 177.258 0.882343 177.036 0.97978C176.812 1.07722 176.617 1.20984 176.452 1.37765C176.287 1.54546 176.157 1.74575 176.065 1.97581C175.973 2.20587 175.924 2.45488 175.924 2.72013C175.924 2.98537 175.97 3.24791 176.065 3.48068ZM177.902 1.42908C178.214 1.42908 178.441 1.49133 178.59 1.61313C178.739 1.73763 178.815 1.92168 178.815 2.17339C178.815 2.40887 178.75 2.57938 178.617 2.68765C178.487 2.79591 178.322 2.86087 178.13 2.88252L178.874 4.03283H178.438L177.732 2.9123H177.302V4.03283H176.896V1.42908H177.902ZM177.724 2.5848C177.816 2.5848 177.902 2.58209 177.984 2.57668C178.065 2.57126 178.135 2.55502 178.2 2.52525C178.262 2.49819 178.314 2.45488 178.352 2.39804C178.39 2.3412 178.409 2.26 178.409 2.15715C178.409 2.07054 178.392 2.00017 178.357 1.94874C178.325 1.89732 178.279 1.85672 178.227 1.82965C178.176 1.80259 178.111 1.78364 178.043 1.77282C177.973 1.76199 177.905 1.75928 177.837 1.75928H177.302V2.5875H177.724V2.5848Z" fill="white"/>
<path d="M8.78023 49.9937C8.78023 50.6406 8.6855 51.2496 8.49333 51.818C8.30116 52.3864 8.02509 52.8817 7.66511 53.2985C7.30513 53.718 6.86125 54.0482 6.33887 54.2891C5.8165 54.53 5.22375 54.6491 4.55793 54.6491C3.8921 54.6491 3.29936 54.5273 2.77157 54.2891C2.24378 54.0482 1.7999 53.718 1.43992 53.2985C1.07994 52.879 0.803868 52.3864 0.611699 51.818C0.41953 51.2496 0.324799 50.6406 0.324799 49.9937C0.324799 49.3469 0.41953 48.7379 0.611699 48.1695C0.803868 47.6011 1.07994 47.1085 1.43992 46.689C1.7999 46.2695 2.24378 45.9392 2.77157 45.6984C3.29936 45.4575 3.89481 45.3384 4.55793 45.3384C5.22105 45.3384 5.8165 45.4602 6.33887 45.6984C6.86125 45.9392 7.30242 46.2695 7.66511 46.689C8.02779 47.1085 8.30116 47.6011 8.49333 48.1695C8.6855 48.7379 8.78023 49.3469 8.78023 49.9937ZM0.874239 49.9937C0.874239 50.5675 0.958144 51.1062 1.12325 51.6123C1.28835 52.1184 1.52924 52.5596 1.84591 52.9385C2.16258 53.3174 2.54692 53.6179 3.00434 53.8398C3.46175 54.0645 3.97871 54.1754 4.56063 54.1754C5.14255 54.1754 5.65952 54.0645 6.11152 53.8398C6.56352 53.6152 6.94786 53.3147 7.26183 52.9385C7.5785 52.5596 7.81668 52.1184 7.98449 51.6123C8.14959 51.1062 8.2335 50.5675 8.2335 49.9937C8.2335 49.4199 8.14959 48.8813 7.98449 48.3752C7.81939 47.8691 7.5785 47.4279 7.26183 47.049C6.94515 46.67 6.56352 46.3696 6.11152 46.1477C5.65952 45.923 5.14255 45.812 4.56063 45.812C3.97871 45.812 3.46175 45.923 3.00434 46.1477C2.54692 46.3723 2.16258 46.6727 1.84591 47.049C1.52924 47.4279 1.28835 47.8691 1.12325 48.3752C0.958144 48.8813 0.874239 49.4199 0.874239 49.9937Z" fill="white"/>
<path d="M17.509 53.9643H17.5334L20.6081 45.5468H21.1548L17.8311 54.4352H17.1951L13.8822 45.5468H14.456L17.5063 53.9643H17.509Z" fill="white"/>
<path d="M26.8089 45.5494H32.7851V46.0231H27.3557V49.585H32.4603V50.0586H27.3557V53.967H32.8474V54.4406H26.8089V45.5521V45.5494Z" fill="white"/>
<path d="M38.8235 45.5494H42.5343C42.9241 45.5494 43.2894 45.59 43.6305 45.6685C43.9715 45.747 44.2692 45.8769 44.5264 46.0556C44.7835 46.2342 44.9838 46.4697 45.1299 46.7593C45.2761 47.0489 45.3492 47.4116 45.3492 47.8419C45.3492 48.4401 45.1814 48.9435 44.8457 49.3549C44.5101 49.7663 44.0419 50.0207 43.4437 50.1209V50.1453C43.8497 50.194 44.1718 50.3022 44.4073 50.47C44.6427 50.6379 44.8214 50.8381 44.9378 51.079C45.0541 51.3199 45.1299 51.5852 45.1624 51.8748C45.1949 52.1644 45.2111 52.4567 45.2111 52.7463V53.2579C45.2111 53.423 45.2193 53.5799 45.2355 53.7261C45.2517 53.8722 45.2788 54.0049 45.3167 54.1294C45.3546 54.2539 45.406 54.3567 45.471 54.4406H44.862C44.7456 54.2322 44.6806 53.9913 44.6698 53.7126C44.6563 53.4338 44.6509 53.1469 44.6509 52.8464C44.6509 52.546 44.6373 52.251 44.613 51.956C44.5886 51.661 44.5101 51.3984 44.3775 51.1656C44.2449 50.9329 44.0338 50.7461 43.7496 50.6054C43.4627 50.4646 43.0594 50.3943 42.537 50.3943H39.3757V54.4406H38.829V45.5521L38.8235 45.5494ZM42.5343 49.9206C42.8591 49.9206 43.1595 49.8827 43.4356 49.8015C43.7144 49.723 43.9526 49.6012 44.1529 49.4334C44.3531 49.2683 44.5101 49.0572 44.6265 48.7974C44.7429 48.5402 44.7997 48.2344 44.7997 47.8771C44.7997 47.5442 44.7375 47.26 44.613 47.0245C44.4885 46.7891 44.3234 46.5942 44.115 46.4453C43.9066 46.2965 43.6657 46.1882 43.3923 46.1205C43.1189 46.0529 42.832 46.0204 42.5343 46.0204H39.373V49.9179H42.5343V49.9206Z" fill="white"/>
<path d="M51.7097 45.5494H52.2564V49.5823H57.9349V45.5494H58.4816V54.4379H57.9349V50.0559H52.2564V54.4379H51.7097V45.5494Z" fill="white"/>
<path d="M65.0938 45.5494H71.07V46.0231H65.6406V49.585H70.7452V50.0586H65.6406V53.967H71.1323V54.4406H65.0938V45.5521V45.5494Z" fill="white"/>
<path d="M79.7474 45.5494H80.3456L83.856 54.4379H83.2714L82.1509 51.5879H77.8934L76.7593 54.4379H76.1747L79.7474 45.5494ZM81.9749 51.1142L80.0695 46.0853H80.0451L78.0666 51.1142H81.9749Z" fill="white"/>
<path d="M89.5345 45.5495H92.4468C93.2425 45.5495 93.9056 45.674 94.4334 45.923C94.9612 46.172 95.3807 46.5049 95.6974 46.919C96.0141 47.3331 96.236 47.8068 96.3632 48.3373C96.4931 48.8678 96.5554 49.4172 96.5554 49.9802C96.5554 50.6108 96.4742 51.1981 96.3118 51.7422C96.1494 52.2862 95.8977 52.7571 95.5594 53.155C95.2183 53.5529 94.7907 53.8669 94.271 54.0942C93.7513 54.3216 93.1342 54.4352 92.4224 54.4352H89.5345V45.5468V45.5495ZM92.4738 53.967C92.8879 53.967 93.3048 53.902 93.7243 53.7748C94.1438 53.6476 94.5227 53.4311 94.8638 53.1279C95.2048 52.8248 95.4809 52.4188 95.692 51.9073C95.9031 51.3957 96.0087 50.757 96.0087 49.9829C96.0087 49.3766 95.9491 48.8569 95.8273 48.4266C95.7055 47.9962 95.5485 47.6308 95.3537 47.3358C95.1588 47.0408 94.9341 46.808 94.6824 46.6375C94.428 46.467 94.1682 46.3371 93.8975 46.2451C93.6268 46.153 93.3589 46.0935 93.0882 46.0637C92.8176 46.0339 92.5767 46.0204 92.3601 46.0204H90.0812V53.9643H92.4711L92.4738 53.967Z" fill="white"/>
<path d="M111.385 45.5495H114.297C115.093 45.5495 115.756 45.674 116.284 45.923C116.812 46.172 117.231 46.5049 117.548 46.919C117.864 47.3331 118.086 47.8068 118.214 48.3373C118.344 48.8678 118.406 49.4172 118.406 49.9802C118.406 50.6108 118.325 51.1981 118.162 51.7422C118 52.2862 117.748 52.7571 117.41 53.155C117.069 53.5529 116.641 53.8669 116.121 54.0942C115.602 54.3216 114.987 54.4352 114.273 54.4352H111.385V45.5468V45.5495ZM114.324 53.967C114.738 53.967 115.155 53.902 115.575 53.7748C115.994 53.6449 116.373 53.4311 116.714 53.1279C117.055 52.8248 117.331 52.4188 117.542 51.9073C117.754 51.3957 117.859 50.757 117.859 49.9829C117.859 49.3766 117.8 48.8569 117.678 48.4266C117.556 47.9962 117.399 47.6308 117.204 47.3358C117.009 47.0408 116.785 46.808 116.533 46.6375C116.278 46.467 116.019 46.3371 115.748 46.2451C115.477 46.153 115.209 46.0935 114.939 46.0637C114.668 46.0339 114.427 46.0204 114.211 46.0204H111.932V53.9643H114.322L114.324 53.967Z" fill="white"/>
<path d="M132.786 49.9937C132.786 50.6406 132.691 51.2496 132.499 51.818C132.307 52.3864 132.034 52.8817 131.671 53.2985C131.311 53.718 130.867 54.0482 130.345 54.2891C129.822 54.53 129.23 54.6491 128.564 54.6491C127.898 54.6491 127.305 54.5273 126.777 54.2891C126.25 54.0482 125.806 53.718 125.446 53.2985C125.086 52.879 124.81 52.3864 124.617 51.818C124.425 51.2496 124.331 50.6406 124.331 49.9937C124.331 49.3469 124.425 48.7379 124.617 48.1695C124.81 47.6011 125.083 47.1085 125.446 46.689C125.808 46.2695 126.25 45.9392 126.777 45.6984C127.305 45.4575 127.901 45.3384 128.564 45.3384C129.227 45.3384 129.822 45.4602 130.345 45.6984C130.867 45.9392 131.311 46.2695 131.671 46.689C132.031 47.1085 132.307 47.6011 132.499 48.1695C132.691 48.7379 132.786 49.3469 132.786 49.9937ZM124.88 49.9937C124.88 50.5675 124.964 51.1062 125.129 51.6123C125.294 52.1184 125.535 52.5596 125.852 52.9385C126.168 53.3174 126.553 53.6179 127.01 53.8398C127.468 54.0645 127.984 54.1754 128.566 54.1754C129.148 54.1754 129.663 54.0645 130.117 53.8398C130.569 53.6152 130.954 53.3147 131.268 52.9385C131.584 52.5596 131.822 52.1184 131.99 51.6123C132.155 51.1062 132.239 50.5675 132.239 49.9937C132.239 49.4199 132.155 48.8813 131.99 48.3752C131.825 47.8691 131.584 47.4279 131.268 47.049C130.951 46.67 130.569 46.3696 130.117 46.1477C129.665 45.923 129.148 45.812 128.566 45.812C127.984 45.812 127.468 45.923 127.01 46.1477C126.553 46.3723 126.168 46.6727 125.852 47.049C125.535 47.4279 125.297 47.8691 125.129 48.3752C124.964 48.8813 124.88 49.4199 124.88 49.9937Z" fill="white"/>
<path d="M147.055 49.9937C147.055 50.6406 146.96 51.2496 146.768 51.818C146.576 52.3864 146.303 52.8817 145.94 53.2985C145.58 53.718 145.136 54.0482 144.614 54.2891C144.091 54.53 143.499 54.6491 142.833 54.6491C142.167 54.6491 141.574 54.5273 141.047 54.2891C140.519 54.0482 140.075 53.718 139.715 53.2985C139.355 52.879 139.079 52.3864 138.887 51.818C138.695 51.2496 138.6 50.6406 138.6 49.9937C138.6 49.3469 138.695 48.7379 138.887 48.1695C139.079 47.6011 139.352 47.1085 139.715 46.689C140.078 46.2695 140.519 45.9392 141.047 45.6984C141.574 45.4575 142.17 45.3384 142.833 45.3384C143.496 45.3384 144.091 45.4602 144.614 45.6984C145.136 45.9392 145.58 46.2695 145.94 46.689C146.3 47.1085 146.576 47.6011 146.768 48.1695C146.96 48.7379 147.055 49.3469 147.055 49.9937ZM139.149 49.9937C139.149 50.5675 139.233 51.1062 139.398 51.6123C139.563 52.1184 139.804 52.5596 140.121 52.9385C140.438 53.3174 140.822 53.6179 141.279 53.8398C141.737 54.0645 142.254 54.1754 142.836 54.1754C143.418 54.1754 143.932 54.0645 144.387 53.8398C144.839 53.6152 145.223 53.3147 145.537 52.9385C145.853 52.5596 146.092 52.1184 146.259 51.6123C146.425 51.1062 146.508 50.5675 146.508 49.9937C146.508 49.4199 146.425 48.8813 146.259 48.3752C146.094 47.8691 145.853 47.4279 145.537 47.049C145.22 46.67 144.839 46.3696 144.387 46.1477C143.935 45.923 143.418 45.812 142.836 45.812C142.254 45.812 141.737 45.923 141.279 46.1477C140.822 46.3723 140.438 46.6727 140.121 47.049C139.804 47.4279 139.566 47.8691 139.398 48.3752C139.233 48.8813 139.149 49.4199 139.149 49.9937Z" fill="white"/>
<path d="M153.267 45.5494H156.978C157.367 45.5494 157.733 45.59 158.074 45.6685C158.415 45.747 158.713 45.8769 158.97 46.0556C159.227 46.2342 159.427 46.4697 159.573 46.7593C159.719 47.0489 159.79 47.4116 159.79 47.8419C159.79 48.4401 159.622 48.9435 159.286 49.3549C158.951 49.7663 158.483 50.0207 157.887 50.1209V50.1453C158.293 50.194 158.615 50.3022 158.853 50.47C159.092 50.6379 159.265 50.8381 159.384 51.079C159.5 51.3199 159.576 51.5852 159.608 51.8748C159.641 52.1644 159.657 52.4567 159.657 52.7463V53.2579C159.657 53.423 159.665 53.5799 159.682 53.7261C159.698 53.8722 159.725 54.0049 159.763 54.1294C159.801 54.2539 159.852 54.3567 159.92 54.4406H159.311C159.194 54.2322 159.129 53.9913 159.119 53.7126C159.105 53.4338 159.1 53.1469 159.1 52.8464C159.1 52.546 159.086 52.251 159.062 51.956C159.037 51.661 158.959 51.3984 158.826 51.1656C158.694 50.9329 158.485 50.7461 158.198 50.6054C157.911 50.4646 157.508 50.3943 156.986 50.3943H153.824V54.4406H153.278V45.5521L153.267 45.5494ZM156.978 49.9206C157.302 49.9206 157.603 49.8827 157.879 49.8015C158.158 49.723 158.396 49.6012 158.594 49.4334C158.794 49.2683 158.951 49.0572 159.067 48.7974C159.184 48.5402 159.24 48.2344 159.24 47.8771C159.24 47.5442 159.178 47.26 159.054 47.0245C158.929 46.7891 158.764 46.5942 158.556 46.4453C158.347 46.2965 158.106 46.1882 157.833 46.1205C157.56 46.0529 157.273 46.0204 156.975 46.0204H153.814V49.9179H156.975L156.978 49.9206Z" fill="white"/>
<path d="M171.956 48.0882C171.94 47.7066 171.859 47.3737 171.712 47.0922C171.566 46.8107 171.371 46.5725 171.122 46.3831C170.873 46.1936 170.576 46.0502 170.232 45.9527C169.888 45.8553 169.512 45.8093 169.106 45.8093C168.857 45.8093 168.589 45.839 168.302 45.8959C168.015 45.9527 167.75 46.0556 167.506 46.2017C167.263 46.3479 167.06 46.5428 166.903 46.7864C166.746 47.0299 166.667 47.3358 166.667 47.7012C166.667 48.0666 166.754 48.3481 166.93 48.5727C167.106 48.7974 167.333 48.9787 167.615 49.114C167.896 49.2521 168.221 49.3603 168.586 49.4442C168.952 49.5281 169.32 49.6066 169.693 49.6797C170.075 49.7555 170.446 49.8448 170.808 49.9477C171.168 50.0505 171.493 50.194 171.78 50.3699C172.067 50.5458 172.297 50.7813 172.47 51.0682C172.643 51.3551 172.733 51.7124 172.733 52.1454C172.733 52.611 172.633 53.0007 172.435 53.3147C172.237 53.6286 171.986 53.8885 171.683 54.0861C171.379 54.2864 171.044 54.4271 170.673 54.5164C170.302 54.603 169.948 54.6463 169.609 54.6463C169.087 54.6463 168.597 54.5895 168.14 54.4785C167.682 54.3676 167.284 54.1835 166.943 53.9318C166.602 53.6801 166.334 53.3526 166.139 52.9547C165.945 52.5568 165.85 52.0696 165.858 51.4986H166.405C166.38 51.9884 166.451 52.3999 166.616 52.7382C166.781 53.0765 167.011 53.3499 167.306 53.5664C167.601 53.7829 167.947 53.9372 168.345 54.0319C168.743 54.1267 169.163 54.1754 169.604 54.1754C169.869 54.1754 170.153 54.1429 170.457 54.0752C170.76 54.0076 171.038 53.8966 171.29 53.7396C171.542 53.5826 171.756 53.3742 171.926 53.1171C172.097 52.86 172.181 52.5352 172.181 52.1454C172.181 51.7557 172.094 51.4661 171.918 51.2306C171.745 50.9951 171.512 50.803 171.228 50.6568C170.941 50.5106 170.619 50.3943 170.256 50.3076C169.894 50.221 169.523 50.1398 169.141 50.0641C168.768 49.9883 168.397 49.9017 168.034 49.8015C167.671 49.7014 167.344 49.566 167.062 49.3955C166.781 49.225 166.551 49.0058 166.378 48.7351C166.204 48.4644 166.115 48.118 166.115 47.6958C166.115 47.2735 166.204 46.9082 166.383 46.605C166.562 46.3019 166.794 46.0583 167.081 45.8715C167.368 45.6848 167.69 45.5467 168.045 45.4601C168.402 45.3735 168.754 45.3302 169.103 45.3302C169.569 45.3302 170.002 45.3816 170.405 45.4872C170.808 45.59 171.16 45.7524 171.463 45.9717C171.767 46.1909 172.01 46.4751 172.191 46.8242C172.373 47.1734 172.478 47.5929 172.503 48.0828H171.956V48.0882Z" fill="white"/>
</g>
<defs>
<clipPath id="clip0_2947_10195">
<rect width="180" height="54.649" fill="white"/>
</clipPath>
</defs>
</svg>
